<?xml version="1.0" encoding="UTF-8"?>
<svg id="Calque_2" data-name="Calque 2" xmlns="http://www.w3.org/2000/svg" viewBox="0 0 2006.44 1491.63">
  <defs>
    <style>
      .cls-1 {
        fill: #fff;
      }

      .cls-2 {
        font-family: Bauhaus93, 'Bauhaus 93';
        font-size: 200px;
      }

      .cls-3 {
        fill: #7c00ff;
      }
    </style>
  </defs>
  <g>
    <path class="cls-1" d="m604.72,512.07l66,80,187-495-523.5,102.5,63,77S127.22,453.57,127.22,756.57s217,405,217,405c0,0,231,140,442-20,211-160,426-445,426-445,0,0,109-170,262-129,156,68,98,250,98,250,0,0-41,123-172,189l-56-81-241,469,533-46-58-83s301-121,301-527-351-477-351-477c0,0-262-83-494,152l-376,438s-106,116-201-1,78-286,124-321l23.5-17.5Z"/>
    <path class="cls-3" d="m1526,260.92c-6.54,8.17-12.93,16.57-19.17,25.19-64.76,89.49-101.89,187.52-111.03,277.69-110.49,18.78-183.58,132.77-183.58,132.77,0,0-215,285-426,445-132.91,100.79-273.76,82.54-359.8,55.22,129.13-71.85,207.27-185.49,191.05-301.04-.53-3.79-1.16-7.54-1.89-11.27,26-14.7,42.64-32.91,42.64-32.91l376-438c219.56-222.4,465.99-159.99,491.78-152.65Z"/>
  </g>
  <text class="cls-2 cls-1" transform="translate(776.88 1024.66) rotate(-45.73)"><tspan x="0" y="0">WAGNER</tspan></text>
</svg>